<?xml version="1.0" encoding="UTF-8" standalone="no"?>
<!DOCTYPE svg PUBLIC "-//W3C//DTD SVG 1.1//EN" "http://www.w3.org/Graphics/SVG/1.1/DTD/svg11.dtd">
<svg width="100%" height="100%" viewBox="0 0 683 683" version="1.1" xmlns="http://www.w3.org/2000/svg" xmlns:xlink="http://www.w3.org/1999/xlink" xml:space="preserve" xmlns:serif="http://www.serif.com/" style="fill-rule:evenodd;clip-rule:evenodd;stroke-linejoin:round;stroke-miterlimit:2;">
    <g transform="matrix(1.33333,0,0,1.33333,0,0)">
        <g transform="matrix(7.41079,0,0,7.41079,33.6763,33.6763)">
            <g transform="matrix(0.121778,0,0,0.112903,-0.129458,2)">
                <path d="M368,64L200,64L200,48L208,48C212.426,48 216,44.414 216,40L216,8C216,3.586 212.426,0 208,0L96,0C91.574,0 88,3.586 88,8L88,40C88,44.414 91.574,48 96,48L104,48L104,69.48C85.113,78.488 72,97.719 72,120L72,440C72,470.871 97.129,496 128,496L368,496C398.871,496 424,470.871 424,440L424,120C424,89.121 398.871,64 368,64ZM408,120L408,244.688L376,212.688L376,136C376,122.77 365.23,112 352,112L275.313,112L243.313,80L368,80C390.055,80 408,97.945 408,120ZM360,196.688L291.313,128L352,128C356.414,128 360,131.594 360,136L360,196.688ZM104,16L200,16L200,32L104,32L104,16ZM120,48L184,48L184,64L128,64C125.281,64 122.625,64.266 120,64.641L120,48ZM368,480L128,480C105.945,480 88,462.055 88,440L88,120C88,97.945 105.945,80 128,80L220.688,80L408,267.313L408,440C408,462.055 390.055,480 368,480Z" style="fill:rgb(102,32,167);fill-rule:nonzero;"/>
            </g>
            <g transform="matrix(0.121778,0,0,0.112903,-0.129458,2)">
                <path d="M213.656,98.344C212.16,96.84 210.129,96 208,96L136,96C118.352,96 104,110.352 104,128L104,432C104,449.648 118.352,464 136,464L360,464C377.648,464 392,449.648 392,432L392,280C392,277.871 391.16,275.84 389.656,274.344L213.656,98.344ZM376,432C376,440.824 368.824,448 360,448L136,448C127.176,448 120,440.824 120,432L120,128C120,119.176 127.176,112 136,112L204.688,112L376,283.313L376,432Z" style="fill:rgb(47,44,87);fill-rule:nonzero;"/>
            </g>
            <g transform="matrix(0.121778,0,0,0.112903,-0.129458,2)">
                <path d="M184,357.984C184,387.52 205.168,412.297 233.23,415.602C235.449,415.855 237.672,415.992 239.871,415.992C253.594,415.992 266.91,411.008 277.191,401.863C289.152,391.238 296,375.984 296,360L296,357.984C296,342.258 292.023,326.656 284.496,312.863L247.023,244.168C244.223,239.023 235.777,239.023 232.977,244.168L195.504,312.855C187.977,326.656 184,342.258 184,357.984ZM209.551,320.52L240,264.711L270.449,320.535C276.695,331.977 280,344.93 280,357.984L280,360C280,371.414 275.105,382.313 266.559,389.902C257.91,397.594 246.719,401.07 235.105,399.711C215.426,397.391 200,379.062 200,357.984C200,344.93 203.305,331.977 209.551,320.52Z" style="fill:rgb(47,44,87);fill-rule:nonzero;"/>
            </g>
            <g transform="matrix(0.121778,0,0,0.112903,-0.129458,2)">
                <path d="M272,360L256,360C256,368.824 248.824,376 240,376L240,392C257.648,392 272,377.648 272,360Z" style="fill:rgb(47,44,87);fill-rule:nonzero;"/>
            </g>
        </g>
    </g>
</svg>
