<?xml version="1.0" encoding="UTF-8" standalone="no"?>
<!DOCTYPE svg PUBLIC "-//W3C//DTD SVG 1.1//EN" "http://www.w3.org/Graphics/SVG/1.1/DTD/svg11.dtd">
<svg width="100%" height="100%" viewBox="0 0 683 683" version="1.1" xmlns="http://www.w3.org/2000/svg" xmlns:xlink="http://www.w3.org/1999/xlink" xml:space="preserve" xmlns:serif="http://www.serif.com/" style="fill-rule:evenodd;clip-rule:evenodd;stroke-linejoin:round;stroke-miterlimit:2;">
    <g transform="matrix(1.33333,0,0,1.33333,0,0)">
        <g transform="matrix(7.52583,0,0,7.52583,52.8025,52.8033)">
            <path d="M53.516,1.143C53.216,0.961 52.842,0.953 52.533,1.116L36,9.869L19.468,1.116C19.455,1.109 19.44,1.107 19.427,1.101C19.379,1.078 19.33,1.061 19.28,1.046C19.252,1.038 19.225,1.029 19.197,1.023C19.142,1.012 19.086,1.008 19.029,1.006C19.004,1.005 18.979,1.002 18.953,1.003C18.899,1.006 18.846,1.016 18.793,1.028C18.763,1.034 18.733,1.038 18.704,1.047C18.697,1.049 18.69,1.049 18.684,1.051L0.684,7.051C0.275,7.187 0,7.569 0,8L0,51C0,51.321 0.154,51.623 0.416,51.812C0.588,51.935 0.793,52 1,52C1.106,52 1.213,51.983 1.316,51.948L18.962,46.066L35.619,52.925C35.633,52.931 35.649,52.929 35.663,52.934C35.773,52.973 35.885,53 36,53C36.09,53 36.179,52.985 36.266,52.961C36.294,52.953 36.32,52.94 36.348,52.93C36.388,52.915 36.43,52.904 36.468,52.884L53.468,43.884C53.795,43.711 54,43.37 54,43L54,2C54,1.649 53.816,1.324 53.516,1.143ZM2,8.721L18,3.388L18,30.38C17.57,30.458 17.146,30.546 16.736,30.654C16.202,30.796 15.884,31.343 16.026,31.877C16.145,32.325 16.549,32.621 16.992,32.621C17.076,32.621 17.163,32.61 17.249,32.588C17.489,32.524 17.751,32.492 18,32.44L18,44.28L2,49.612L2,8.721ZM20,32.16C20.321,32.135 20.632,32.094 20.961,32.087C21.513,32.075 21.951,31.618 21.94,31.066C21.928,30.521 21.483,30.087 20.94,30.087L20.918,30.087C20.608,30.094 20.303,30.111 20,30.132L20,3.661L35,11.602L35,32.796C34.286,32.765 33.56,32.681 32.799,32.534C32.255,32.427 31.732,32.783 31.627,33.325C31.522,33.867 31.877,34.392 32.419,34.497C33.305,34.669 34.165,34.753 35.001,34.786L35.001,50.507L20,44.33L20,32.16ZM52,42.397L37,50.338L37,34.678C37.372,34.509 37.62,34.129 37.587,33.698C37.558,33.324 37.318,33.024 37,32.877L37,11.602L52,3.661L52,42.397Z" style="fill:rgb(102,32,167);fill-rule:nonzero;"/>
            <path d="M11,9C8.243,9 6,11.243 6,14C6,16.415 7.721,18.434 10,18.899L10,21C10,21.553 10.448,22 11,22C11.552,22 12,21.553 12,21L12,18.899C14.279,18.434 16,16.415 16,14C16,11.243 13.757,9 11,9ZM11,17C9.346,17 8,15.654 8,14C8,12.346 9.346,11 11,11C12.654,11 14,12.346 14,14C14,15.654 12.654,17 11,17Z" style="fill:rgb(47,44,87);fill-rule:nonzero;"/>
            <path d="M45.07,27.673C45.19,27.72 45.313,27.741 45.434,27.741C45.834,27.741 46.211,27.5 46.366,27.105C46.836,25.906 47.213,24.552 47.489,23.081C47.591,22.539 47.233,22.017 46.69,21.914C46.144,21.824 45.625,22.171 45.523,22.714C45.271,24.062 44.928,25.294 44.504,26.377C44.303,26.89 44.556,27.471 45.07,27.673Z" style="fill:rgb(47,44,87);fill-rule:nonzero;"/>
            <path d="M12.805,32.342C11.598,33.099 10.51,34.047 9.57,35.162C9.214,35.584 9.268,36.215 9.69,36.571C9.878,36.729 10.107,36.806 10.334,36.806C10.619,36.806 10.901,36.685 11.099,36.451C11.905,35.495 12.836,34.682 13.867,34.037C14.335,33.743 14.476,33.126 14.183,32.658C13.89,32.19 13.272,32.048 12.805,32.342Z" style="fill:rgb(47,44,87);fill-rule:nonzero;"/>
            <path d="M8.627,38.276C8.125,38.046 7.531,38.263 7.3,38.765C6.274,40.991 6.02,42.788 6.009,42.864C5.934,43.411 6.316,43.914 6.863,43.989C6.909,43.996 6.956,43.999 7.001,43.999C7.492,43.999 7.92,43.637 7.991,43.138C7.993,43.122 8.222,41.541 9.116,39.604C9.347,39.101 9.128,38.508 8.627,38.276Z" style="fill:rgb(47,44,87);fill-rule:nonzero;"/>
            <path d="M40.423,33.729C40.576,33.729 40.732,33.694 40.877,33.62C42.169,32.959 43.308,32.021 44.261,30.834C44.607,30.403 44.538,29.773 44.107,29.428C43.677,29.085 43.047,29.152 42.701,29.582C41.925,30.549 41.005,31.308 39.966,31.839C39.474,32.091 39.279,32.693 39.531,33.185C39.709,33.53 40.06,33.729 40.423,33.729Z" style="fill:rgb(47,44,87);fill-rule:nonzero;"/>
            <path d="M29.17,31.432C28.729,31.247 28.471,31.119 28.454,31.11C28.389,31.077 28.32,31.05 28.249,31.032C27.166,30.754 26.099,30.534 25.076,30.378C24.531,30.292 24.02,30.669 23.936,31.215C23.853,31.761 24.228,32.272 24.774,32.355C25.7,32.497 26.667,32.695 27.651,32.945C27.785,33.009 28.041,33.13 28.399,33.279C28.525,33.332 28.656,33.356 28.784,33.356C29.175,33.356 29.547,33.126 29.707,32.742C29.92,32.23 29.68,31.644 29.17,31.432Z" style="fill:rgb(47,44,87);fill-rule:nonzero;"/>
            <path d="M46.923,19.931C46.945,19.932 46.966,19.933 46.988,19.933C47.511,19.933 47.951,19.527 47.985,18.996C48.047,18.035 48.078,17.018 48.078,15.976C48.078,15.629 48.075,15.277 48.068,14.918C48.058,14.365 47.578,13.945 47.05,13.936C46.498,13.946 46.058,14.402 46.068,14.954C46.074,15.301 46.078,15.642 46.078,15.976C46.078,16.976 46.048,17.949 45.989,18.869C45.954,19.42 46.372,19.895 46.923,19.931Z" style="fill:rgb(47,44,87);fill-rule:nonzero;"/>
            <path d="M8.293,28.707C8.488,28.902 8.744,29 9,29C9.256,29 9.512,28.902 9.707,28.707L11,27.414L12.293,28.707C12.488,28.902 12.744,29 13,29C13.256,29 13.512,28.902 13.707,28.707C14.098,28.316 14.098,27.684 13.707,27.293L12.414,26L13.707,24.707C14.098,24.316 14.098,23.684 13.707,23.293C13.316,22.902 12.684,22.902 12.293,23.293L11,24.586L9.707,23.293C9.316,22.902 8.684,22.902 8.293,23.293C7.902,23.684 7.902,24.316 8.293,24.707L9.586,26L8.293,27.293C7.902,27.683 7.902,28.316 8.293,28.707Z" style="fill:rgb(47,44,87);fill-rule:nonzero;"/>
        </g>
    </g>
</svg>
