<?xml version="1.0" encoding="UTF-8" standalone="no"?>
<!DOCTYPE svg PUBLIC "-//W3C//DTD SVG 1.1//EN" "http://www.w3.org/Graphics/SVG/1.1/DTD/svg11.dtd">
<svg width="100%" height="100%" viewBox="0 0 683 683" version="1.1" xmlns="http://www.w3.org/2000/svg" xmlns:xlink="http://www.w3.org/1999/xlink" xml:space="preserve" xmlns:serif="http://www.serif.com/" style="fill-rule:evenodd;clip-rule:evenodd;stroke-linejoin:round;stroke-miterlimit:2;">
    <g transform="matrix(1.33333,0,0,1.33333,0,0)">
        <path d="M501.906,170.746L482.59,170.746C482.359,170.531 482.121,170.324 481.859,170.133L417.449,123.562C416.183,122.644 414.66,122.152 413.094,122.152L344.246,122.152L323.766,108.195C315.844,102.797 307.473,115.078 315.394,120.476L389.101,170.707L123.414,170.707L255.57,81.48C255.832,81.508 256.102,81.527 256.371,81.527C256.559,81.527 256.742,81.512 256.926,81.5L282.805,98.473C290.82,103.73 298.977,91.301 290.957,86.043L263.801,68.234L263.801,51.184C265.129,51.348 266.449,51.426 267.754,51.426C279.832,51.426 295.328,40.887 306.73,47.461C311.543,50.227 317.875,46.609 317.875,41.019L317.875,12.18C317.875,9.52 316.453,7.066 314.152,5.738C305.711,0.879 296.402,1.254 287.234,3.422C279.828,5.18 271.551,9.258 263.801,7.262C263.273,-2.191 248.938,-2.598 248.938,7.117L248.938,68.023L168.766,122.152L99.231,122.152C97.668,122.152 96.145,122.648 94.875,123.562L30.469,170.133C30.207,170.324 29.969,170.531 29.738,170.746L9.434,170.746C5.328,170.746 2,174.074 2,178.18L2,220.707C2,224.812 5.328,228.14 9.434,228.14L13.645,228.14L13.645,421.402C13.645,430.988 28.508,430.988 28.508,421.402L28.508,228.14L119.422,228.14L119.422,262.363C119.422,266.469 122.75,269.797 126.852,269.797L143.203,269.797L143.203,470.382L126.852,470.382C122.75,470.382 119.422,473.71 119.422,477.816L119.422,497.136L28.508,497.136L28.508,457.074C28.508,447.488 13.645,447.488 13.645,457.074L13.645,504.57C13.645,508.671 16.969,512 21.074,512L491.254,512C502.601,512 498.683,487.105 498.683,480.476L498.683,236.121C498.683,232.996 496.797,226.519 501.906,228.14C506.011,228.14 509.336,224.812 509.336,220.707L509.336,178.18C509.336,174.074 506.011,170.746 501.906,170.746ZM263.801,22.352C271.621,23.309 279.074,21.16 285.461,19.32C292.844,17.191 298.148,15.832 303.012,17.082L303.012,30.848C295.191,29.891 287.738,32.035 281.352,33.879C273.969,36.004 268.664,37.367 263.801,36.113L263.801,22.352ZM366.058,137.015L410.691,137.015L457.34,170.746L415.555,170.746L366.058,137.015ZM101.637,137.015L146.75,137.015L96.793,170.746L54.988,170.746L101.637,137.015ZM195.719,497.136L134.285,497.136L134.285,485.246L195.719,485.246L195.719,497.136ZM158.066,470.382L158.066,271.777L172.93,271.777L172.93,470.382L158.066,470.382ZM273.008,494.726L239.32,494.726L239.32,408.293C239.32,403.367 241.465,398.707 245.203,395.5C251.555,390.058 260.777,390.054 267.129,395.5C270.863,398.707 273.012,403.367 273.012,408.293L273.012,494.726L273.008,494.726ZM301.746,477.812L301.746,497.136L287.871,497.136L287.871,408.293C287.871,399.023 283.836,390.25 276.801,384.218C264.844,373.968 247.484,373.968 235.527,384.218C228.492,390.25 224.457,399.023 224.457,408.293L224.457,497.136L210.582,497.136L210.582,477.812C210.582,473.71 207.254,470.382 203.152,470.382L187.793,470.382L187.793,269.797L273.008,269.797C282.598,269.797 282.598,254.933 273.008,254.933L134.285,254.933L134.285,228.179L378.043,228.179L378.043,254.933L312.644,254.933C303.059,254.933 303.059,269.797 312.644,269.797L325.527,269.797L325.527,470.382L309.176,470.382C305.07,470.382 301.746,473.71 301.746,477.812ZM355.254,271.777L355.254,470.382L340.391,470.382L340.391,271.777L355.254,271.777ZM378.043,497.136L316.609,497.136L316.609,485.246L378.043,485.246L378.043,497.136ZM483.82,497.136L392.906,497.136L392.906,477.812C392.906,473.71 389.582,470.382 385.476,470.382L370.117,470.382L370.117,269.797L385.476,269.797C389.582,269.797 392.906,266.469 392.906,262.363L392.906,228.137L483.82,228.137L483.82,497.136ZM494.472,213.273L16.864,213.273L16.864,185.609L494.472,185.609L494.472,213.273Z" style="fill:rgb(102,32,167);fill-rule:nonzero;"/>
        <path d="M256.164,291.593C240.047,291.593 226.934,304.707 226.934,320.828C226.934,336.945 240.047,350.058 256.164,350.058C272.281,350.058 285.395,336.945 285.395,320.828C285.395,304.707 272.281,291.593 256.164,291.593ZM256.164,335.195C248.242,335.195 241.797,328.75 241.797,320.828C241.797,312.906 248.242,306.457 256.164,306.457C264.086,306.457 270.531,312.906 270.531,320.828C270.531,328.75 264.086,335.195 256.164,335.195Z" style="fill:rgb(47,44,87);fill-rule:nonzero;"/>
        <path d="M413.137,351.996L440.058,351.996C444.164,351.996 447.488,348.668 447.488,344.562L447.488,290.34C447.488,278.82 438.117,269.449 426.597,269.449C415.078,269.449 405.707,278.82 405.707,290.34L405.707,344.562C405.707,348.668 409.031,351.996 413.137,351.996ZM420.57,290.34C420.57,287.015 423.273,284.312 426.597,284.312C429.922,284.312 432.625,287.015 432.625,290.34L432.625,337.132L420.57,337.132L420.57,290.34Z" style="fill:rgb(47,44,87);fill-rule:nonzero;"/>
        <path d="M413.137,460.003L440.058,460.003C444.164,460.003 447.488,456.675 447.488,452.57L447.488,398.347C447.488,386.828 438.117,377.457 426.597,377.457C415.078,377.457 405.707,386.828 405.707,398.347L405.707,452.57C405.707,456.675 409.031,460.003 413.137,460.003ZM420.57,398.347C420.57,395.023 423.273,392.32 426.597,392.32C429.922,392.32 432.625,395.023 432.625,398.347L432.625,445.14L420.57,445.14L420.57,398.347Z" style="fill:rgb(47,44,87);fill-rule:nonzero;"/>
        <path d="M97.207,351.996C101.313,351.996 104.641,348.668 104.641,344.562L104.641,290.34C104.641,278.82 95.27,269.449 83.75,269.449C72.231,269.449 62.86,278.82 62.86,290.34L62.86,344.562C62.86,348.668 66.184,351.996 70.289,351.996L97.207,351.996ZM77.723,290.34C77.723,287.015 80.426,284.312 83.75,284.312C87.074,284.312 89.777,287.015 89.777,290.34L89.777,337.132L77.723,337.132L77.723,290.34Z" style="fill:rgb(47,44,87);fill-rule:nonzero;"/>
        <path d="M62.86,452.57C62.86,456.675 66.188,460.003 70.289,460.003L97.207,460.003C101.313,460.003 104.641,456.675 104.641,452.57L104.641,398.347C104.641,386.828 95.27,377.457 83.75,377.457C72.231,377.457 62.86,386.828 62.86,398.347L62.86,452.57ZM77.723,398.347C77.723,395.023 80.426,392.32 83.75,392.32C87.074,392.32 89.777,395.023 89.777,398.347L89.777,445.14L77.723,445.14L77.723,398.347Z" style="fill:rgb(47,44,87);fill-rule:nonzero;"/>
    </g>
</svg>
